HIERARCHY
ROOT Hips
{
	OFFSET	0	0	0
	CHANNELS 6  Xposition Yposition Zposition Xrotation Yrotation Zrotation
	JOINT Spine
	{
		OFFSET	0	3.8508	0.774427
		CHANNELS 3  Xrotation Yrotation Zrotation
		JOINT Spine1
		{
			OFFSET	0	6.60426	-1.17933
			CHANNELS 3  Xrotation Yrotation Zrotation
			JOINT Spine2
			{
				OFFSET	0	5.00626	0.536596
				CHANNELS 3  Xrotation Yrotation Zrotation
				JOINT Spine3
				{
					OFFSET	0	5.991	1.78079
					CHANNELS 3  Xrotation Yrotation Zrotation
					JOINT Spine4
					{
						OFFSET	0	8.86857	-0.908085
						CHANNELS 3  Xrotation Yrotation Zrotation
						JOINT Neck
						{
							OFFSET	0	4.2338	-2.96602
							CHANNELS 3  Xrotation Yrotation Zrotation
							JOINT Head
							{
								OFFSET	0	5.08292	-1.52134
								CHANNELS 3  Xrotation Yrotation Zrotation
								End Site
								{
									OFFSET	0	10.6022	-0.513009
								}
							}
						}
					}
					JOINT LeftShoulder
					{
						OFFSET	-2.54736	10.7791	-5.08292
						CHANNELS 3  Xrotation Yrotation Zrotation
						JOINT LeftArm
						{
							OFFSET	-5.58049	-1.52134	1.9518
							CHANNELS 3  Xrotation Yrotation Zrotation
							JOINT LeftForeArm
							{
								OFFSET	-19.0272	-0.868433	1.35814
								CHANNELS 3  Xrotation Yrotation Zrotation
								JOINT LeftHand
								{
									OFFSET	-15.041	-1.03942	1.07361
									CHANNELS 3  Xrotation Yrotation Zrotation
									End Site
									{
										OFFSET	-5.48921	-0.379337	0.391788
									}
								}
							}
						}
					}
					JOINT RightShoulder
					{
						OFFSET	2.54736	10.7791	-5.08292
						CHANNELS 3  Xrotation Yrotation Zrotation
						JOINT RightArm
						{
							OFFSET	5.58049	-1.52134	1.9518
							CHANNELS 3  Xrotation Yrotation Zrotation
							JOINT RightForeArm
							{
								OFFSET	19.0272	-0.868433	1.35814
								CHANNELS 3  Xrotation Yrotation Zrotation
								JOINT RightHand
								{
									OFFSET	15.041	-1.03942	1.07361
									CHANNELS 3  Xrotation Yrotation Zrotation
									End Site
									{
										OFFSET	5.48921	-0.379337	0.391788
									}
								}
							}
						}
					}
				}
			}
		}
	}
	JOINT LeftUpLeg
	{
		OFFSET	-5.30616	-1.9254	-0.387214
		CHANNELS 3  Xrotation Yrotation Zrotation
		JOINT LeftLeg
		{
			OFFSET	-1.24242	-24.3447	-0.380561
			CHANNELS 3  Xrotation Yrotation Zrotation
			JOINT LeftFoot
			{
				OFFSET	-1.21431	-22.3837	1.925
				CHANNELS 3  Xrotation Yrotation Zrotation
				JOINT LeftToeBase
				{
					OFFSET	0	-2.79723	-7.42944
					CHANNELS 3  Xrotation Yrotation Zrotation
					End Site
					{
						OFFSET	0	-1.11889	-4.47557
					}
				}
			}
		}
	}
	JOINT RightUpLeg
	{
		OFFSET	5.30616	-1.9254	-0.387214
		CHANNELS 3  Xrotation Yrotation Zrotation
		JOINT RightLeg
		{
			OFFSET	1.24242	-24.3447	-0.380561
			CHANNELS 3  Xrotation Yrotation Zrotation
			JOINT RightFoot
			{
				OFFSET	1.21431	-22.3837	1.925
				CHANNELS 3  Xrotation Yrotation Zrotation
				JOINT RightToeBase
				{
					OFFSET	0	-2.79723	-7.42944
					CHANNELS 3  Xrotation Yrotation Zrotation
					End Site
					{
						OFFSET	0	-1.11889	-4.47557
					}
				}
			}
		}
	}
}
MOTION
Frames: 9
Frame Time: 0.033334
 0 12.7454 4.70448 -0 0 -0 -0 0 -0 -0 0 -0 -0 0 -0 -0 0 -0 -0 0 -0 -0 0 -0 -0 0 -0 -0 0 -0 -0 0 -0 -0 0 -0 -0 0 -0 -0 0 -0 -0 0 -0 -0 0 -0 -0 0 -0 -0 0 -0 -0 0 -0 -0 0 -0 -0 0 -0 -0 0 -0 -0 0 -0 -0 0 -0 -0 0 -0
 -18.145 53.7954 -37.2816 165.983 -3.04939 -147.352 0.000304891 0.00232126 -7.4828 173.813 179.995 167.529 174.013 179.986 167.529 176.469 179.998 172.517 176.554 179.85 177.51 175.232 171.072 -166.548 178.812 176.533 -175.926 179.191 163.804 178.727 167.096 -123.085 -116.875 110.599 21.7908 44.5564 -0 152.276 2.33708 173.75 152.749 -166.323 171.138 139.779 111.925 34.9033 17.2581 -11.7071 -0 153.049 -18.5113 35.4402 26.8575 -69.2171 151.061 -169.983 -170.015 15.3624 -0.0200485 14.3304 0.262124 0 0 145.824 -172.219 134.48 10.1052 4.49165 9.59233 165.415 -179.998 165.668 149.39 180 -180
 -18.1548 53.7825 -37.2837 165.893 -2.97052 -147.453 0.000274909 0.00210136 -7.45337 173.769 179.996 167.578 173.968 179.988 167.578 176.437 179.998 172.547 176.547 179.85 177.52 175.245 171.001 -166.475 178.819 176.484 -175.901 179.198 164.163 178.731 166.711 -123.187 -117.231 110.57 21.6885 44.5984 -0 152.553 2.18143 173.851 152.757 -166.547 171.005 139.567 112.158 35.0391 17.3136 -11.7706 -0 154.423 -16.9503 35.4162 27.0314 -69.1838 150.928 -169.986 -170.009 15.5255 -0.0164974 14.3355 0.249741 0 0 145.798 -172.149 134.45 10.1115 4.28415 9.83393 165.424 179.982 165.679 149.394 180 -180
 -18.1454 53.7776 -37.2784 165.849 -2.90784 -147.531 9.05784e-05 0.000693745 -7.43872 173.738 179.999 167.602 173.936 179.996 167.602 176.418 179.999 172.561 176.533 179.85 177.525 175.207 170.771 -166.242 178.815 176.275 -175.82 179.125 164.483 178.608 166.816 -123.142 -116.837 110.526 21.528 44.5653 -0 152.779 1.97671 173.938 152.67 -166.741 170.665 139.421 112.41 35.1021 17.3826 -11.8115 -0 155.65 -15.6661 35.3088 27.2586 -69.1001 150.848 -170.003 -170.026 15.6741 -0.00851143 14.3251 0.235394 0 0 145.644 -172.18 134.467 10.2323 3.88815 9.90107 165.492 179.979 165.696 149.398 180 -180
 -18.1589 53.7828 -37.2805 165.845 -3.09225 -147.615 180 -179.997 172.582 173.707 -179.994 167.637 173.901 -179.982 167.637 176.396 -179.997 172.582 176.528 179.85 177.532 175.231 170.666 -166.307 178.819 176.039 -175.817 179.026 164.786 178.443 166.843 -123.155 -116.596 110.498 21.3475 44.3812 -0 152.952 1.75899 174.078 152.248 -167.053 170.186 139.246 112.667 35.1 17.3377 -11.7871 -0 156.821 -14.5271 35.2319 27.287 -68.9641 150.909 -170.019 -170.125 15.745 -0.00977513 14.3264 0.223671 0 0 145.463 -172.092 134.467 10.3499 3.54523 9.98351 165.483 179.975 165.77 149.401 180 -180
 -18.1286 53.7829 -37.3144 165.885 -3.21927 -147.717 9.77367e-05 0.000752258 -7.40265 173.69 179.999 167.662 173.885 179.996 167.662 176.378 179.999 172.597 176.534 179.851 177.537 175.271 170.561 -166.336 178.83 175.845 -175.808 179.005 165.059 178.402 167.073 -123.165 -116.333 110.449 21.2089 44.2194 -0 153.168 1.47251 174.15 151.945 -167.213 169.733 139.128 112.935 35.0993 17.3533 -11.7853 -0 157.849 -13.5167 34.8251 27.9619 -68.9074 150.754 -170.005 -170.025 16.6643 -0.000839675 14.3255 0.20737 0 0 145.364 -171.998 134.576 10.433 3.23942 9.50108 165.523 179.998 165.808 149.404 180 -180
 -18.0869 53.7738 -37.2712 165.731 -3.4334 -147.855 180 -179.996 172.612 173.619 -179.993 167.687 173.81 -179.979 167.687 176.329 -179.996 172.612 176.519 179.85 177.542 175.333 170.648 -166.672 178.836 175.71 -175.89 179.039 164.923 178.46 167.343 -123.323 -116.249 110.261 21.2186 44.4227 -0 153.429 1.10806 174.219 151.905 -167.366 169.234 139.055 113.263 35.0118 17.2308 -11.6674 -0 158.91 -12.5155 34.7003 27.4988 -68.7076 150.667 -170.025 -170.02 17.7341 -0.00179245 14.3298 0.194847 0 0 145.029 -172.044 134.575 10.5318 2.99871 9.88805 165.727 179.969 165.805 149.407 180 -180
 -18.0794 53.7829 -37.2555 165.643 -3.71069 -147.835 7.91015e-05 0.000608651 -7.40477 173.566 179.999 167.659 173.761 179.996 167.659 176.295 179.999 172.595 176.494 179.849 177.536 175.332 170.662 -166.792 178.83 175.616 -175.915 178.884 164.776 178.215 167.894 -123.458 -115.793 110.375 20.9033 43.835 -0 153.641 0.730733 174.286 151.857 -167.515 168.708 138.793 113.649 35.0484 17.637 -11.9431 -0 159.878 -11.6495 34.5751 27.4139 -68.6693 150.762 -169.996 -170.074 16.6801 -0.0144853 14.3324 0.182238 0 0 144.876 -171.835 134.428 10.6945 2.79899 9.96807 165.37 179.983 165.874 149.409 180 -180
 -18.0606 53.8367 -37.2501 165.636 -4.08181 -147.768 0.000120787 0.000925121 -7.43868 173.539 179.998 167.602 173.713 179.995 167.602 176.214 179.999 172.561 176.633 179.854 177.525 175.775 170.568 -167.059 178.957 175.431 -175.966 178.791 164.922 178.063 168.574 -123.329 -114.872 110.66 20.316 42.6131 -0 153.804 0.316036 174.333 151.89 -167.618 168.309 138.602 113.969 35.0833 17.9757 -12.1158 -0 160.775 -10.8286 34.4415 27.3182 -68.5773 151.222 -169.979 -170.154 15.6715 -0.0240333 14.333 0.168079 0 0 144.731 -171.623 134.597 11.0967 2.8413 9.97242 164.624 179.987 165.99 149.411 180 -180
